<svg width="56" height="16" viewBox="0 0 56 16" fill="none" xmlns="http://www.w3.org/2000/svg">
<g clip-path="url(#clip0_3289_185657)">
<path d="M42.347 15.996H52.8003C54.5676 15.996 56.0003 14.5633 56.0003 12.796V3.19853C56.0003 1.43122 54.5676 -0.00146484 52.8003 -0.00146484H42.3427C42.8881 0.940464 43.2003 2.03431 43.2003 3.20107V12.8011C43.2003 13.9647 42.8898 15.0558 42.347 15.996Z" fill="white"/>
<path d="M43.2012 12.4283C43.4634 12.4757 43.731 12.5 44.0012 12.5C45.1946 12.5 46.3392 12.0259 47.1832 11.182C48.0271 10.3381 48.5012 9.19347 48.5012 8C48.5012 6.80653 48.0271 5.66193 47.1832 4.81802C46.3392 3.97411 45.1946 3.5 44.0012 3.5C43.731 3.5 43.4634 3.52429 43.2012 3.57166V12.4283Z" fill="#D80027"/>
<path d="M52.8007 0.398926C54.3469 0.399105 55.6005 1.65244 55.6005 3.19873V12.7964C55.6003 14.3425 54.3468 15.596 52.8007 15.5962H42.9979C43.3833 14.743 43.6004 13.7974 43.6005 12.8013V3.20068C43.6004 2.20181 43.3814 1.25396 42.994 0.398926H52.8007Z" stroke="black" stroke-opacity="0.2" stroke-width="0.799978"/>
</g>
<g clip-path="url(#clip1_3289_185657)">
<path d="M26.3459 15.996H36.7992C38.5665 15.996 39.9992 14.5633 39.9992 12.796V3.19854C39.9992 1.43122 38.5665 -0.00146484 36.7992 -0.00146484H26.3415C26.8869 0.940464 27.1992 2.03431 27.1992 3.20107V12.8011C27.1992 13.9647 26.8886 15.0558 26.3459 15.996Z" fill="white"/>
<path d="M27.2001 5.3325H40.0001V3.2C40.0001 1.43269 38.5674 0 36.8001 0H26.3439C26.8884 0.941355 27.2001 2.03428 27.2001 3.2V5.3325Z" fill="#A2001D"/>
<path d="M26.3415 16.001H36.7992C38.5665 16.001 39.9992 14.5683 39.9992 12.801V10.6685H27.1992V12.7984C27.1992 13.9652 26.8869 15.059 26.3415 16.001Z" fill="#0052B4"/>
<path d="M36.7441 0.398926C38.2903 0.399105 39.5439 1.65244 39.5439 3.19873V12.7964C39.5437 14.3425 38.2902 15.596 36.7441 15.5962H26.9413C27.3267 14.743 27.5439 13.7974 27.5439 12.8013V3.20068C27.5438 2.20181 27.3248 1.25396 26.9374 0.398926H36.7441Z" stroke="black" stroke-opacity="0.2" stroke-width="0.799978"/>
</g>
<g clip-path="url(#clip2_3289_185657)">
<path d="M24 -0.00146484H0V15.996H24V-0.00146484Z" fill="white"/>
<path d="M24 2H0V4.0025H24V2ZM24 5.9975H0V8H24V5.9975ZM24 10.0025H0V12.005H24V10.0025ZM24 14H0V16.0025H24V14Z" fill="#D80027"/>
<path d="M12 -0.00146484H0V8.61604H12V-0.00146484Z" fill="#2E52B2"/>
<path d="M4.67978 3.52781L4.48478 4.12031H3.86228L4.36478 4.48781L4.16978 5.08031L4.67978 4.71281L5.18228 5.08031L4.99478 4.48781L5.49728 4.12031H4.87478L4.67978 3.52781ZM4.87478 6.26531L4.67978 5.67281L4.48478 6.26531H3.86228L4.36478 6.63281L4.16978 7.22531L4.67978 6.86531L5.18228 7.22531L4.99478 6.63281L5.49728 6.26531H4.87478ZM2.22728 6.26531L2.03228 5.67281L1.84478 6.26531H1.21478L1.72478 6.63281L1.52978 7.22531L2.03228 6.86531L2.54228 7.22531L2.34728 6.63281L2.85728 6.26531H2.22728ZM2.03228 3.52781L1.84478 4.12031H1.21478L1.72478 4.48781L1.52978 5.08031L2.03228 4.71281L2.54228 5.08031L2.34728 4.48781L2.85728 4.12031H2.22728L2.03228 3.52781ZM4.67978 1.38281L4.48478 1.97531H3.86228L4.36478 2.34281L4.16978 2.93531L4.67978 2.56781L5.18228 2.93531L4.99478 2.34281L5.49728 1.97531H4.87478L4.67978 1.38281ZM2.03228 1.38281L1.84478 1.97531H1.21478L1.72478 2.34281L1.52978 2.93531L2.03228 2.56781L2.54228 2.93531L2.34728 2.34281L2.85728 1.97531H2.22728L2.03228 1.38281ZM7.31978 3.52781L7.12478 4.12031H6.50228L7.00478 4.48781L6.81728 5.08031L7.31978 4.71281L7.82228 5.08031L7.63478 4.48781L8.13728 4.12031H7.51478L7.31978 3.52781ZM7.51478 6.26531L7.31978 5.67281L7.12478 6.26531H6.50228L7.00478 6.63281L6.81728 7.22531L7.31978 6.86531L7.82228 7.22531L7.63478 6.63281L8.13728 6.26531H7.51478ZM10.1548 6.26531L9.95978 5.67281L9.77228 6.26531H9.14228L9.65228 6.63281L9.45728 7.22531L9.95978 6.86531L10.4698 7.22531L10.2748 6.63281L10.7773 6.26531H10.1548ZM9.95978 3.52781L9.77228 4.12031H9.14228L9.65228 4.48781L9.45728 5.08031L9.95978 4.71281L10.4698 5.08031L10.2748 4.48781L10.7773 4.12031H10.1548L9.95978 3.52781ZM7.31978 1.38281L7.12478 1.97531H6.50228L7.00478 2.34281L6.81728 2.93531L7.31978 2.56781L7.82228 2.93531L7.63478 2.34281L8.13728 1.97531H7.51478L7.31978 1.38281ZM9.95978 1.38281L9.77228 1.97531H9.14228L9.65228 2.34281L9.45728 2.93531L9.95978 2.56781L10.4698 2.93531L10.2748 2.34281L10.7773 1.97531H10.1548L9.95978 1.38281Z" fill="white"/>
</g>
<rect x="0.399989" y="0.399989" width="23.2" height="15.2" rx="2.80001" stroke="black" stroke-opacity="0.2" stroke-width="0.799978"/>
<defs>
<clipPath id="clip0_3289_185657">
<rect width="14.4" height="16" fill="white" transform="translate(41.6004)"/>
</clipPath>
<clipPath id="clip1_3289_185657">
<rect width="24" height="16" fill="white" transform="translate(15.9996)"/>
</clipPath>
<clipPath id="clip2_3289_185657">
<rect width="24" height="16" rx="3.2" fill="white"/>
</clipPath>
</defs>
</svg>
