<svg width="160" height="90" viewBox="0 0 160 90" fill="none" xmlns="http://www.w3.org/2000/svg">
<g filter="url(#filter0_i_2463_27863)">
<path d="M56 24.1758C56 21.4144 58.2386 19.1758 61 19.1758H100.918C103.679 19.1758 105.918 21.4144 105.918 24.1758V71.9167C105.918 74.6781 103.679 76.9167 100.918 76.9167H61C58.2386 76.9167 56 74.6781 56 71.9167V24.1758Z" fill="#3B3747"/>
</g>
<mask id="mask0_2463_27863" style="mask-type:alpha" maskUnits="userSpaceOnUse" x="56" y="64" width="50" height="13">
<path d="M56 64.6235H105.918V74.6816C105.918 75.9161 104.917 76.9168 103.683 76.9168H56V64.6235Z" fill="#C4C4C4"/>
</mask>
<g mask="url(#mask0_2463_27863)">
<g opacity="0.6" filter="url(#filter1_f_2463_27863)">
<path d="M60.6566 74.6154L59.7253 69.7859H101.82C100.934 72.657 98.2807 74.6154 95.276 74.6154H60.6566Z" fill="#221548"/>
</g>
</g>
<path d="M58.2351 60.1527C58.2351 58.3011 59.7362 56.8 61.5878 56.8H103.683V70.9559C103.683 73.0133 102.015 74.6811 99.9576 74.6811H61.9603C59.903 74.6811 58.2351 73.0133 58.2351 70.9559V60.1527Z" fill="url(#paint0_linear_2463_27863)"/>
<path d="M58.2351 25.1357C58.2351 23.0784 59.903 21.4105 61.9603 21.4105H99.9576C102.015 21.4105 103.683 23.0784 103.683 25.1357V56.8001L86.1743 74.6812H61.9603C59.903 74.6812 58.2351 73.0133 58.2351 70.956V25.1357Z" fill="url(#paint1_linear_2463_27863)"/>
<g filter="url(#filter2_i_2463_27863)">
<path d="M58.2351 25.1356C58.2351 23.0782 59.903 21.4104 61.9603 21.4104H99.9576C102.015 21.4104 103.683 23.0782 103.683 25.1356V56.8L86.1743 74.6811H61.9603C59.903 74.6811 58.2351 73.0132 58.2351 70.9558V25.1356Z" fill="url(#paint2_linear_2463_27863)"/>
</g>
<g opacity="0.5" filter="url(#filter3_f_2463_27863)">
<path d="M66.8145 23.7049C66.8145 22.211 68.0255 21 69.5194 21H92.6095C94.1034 21 95.3145 22.211 95.3145 23.7049V24.6475C95.3145 25.3945 94.7089 26 93.962 26H68.1669C67.42 26 66.8145 25.3945 66.8145 24.6475V23.7049Z" fill="#1C1B24"/>
</g>
<path d="M70.3018 33.7495C70.3018 33.3353 70.6376 32.9995 71.0518 32.9995H96.0518C96.466 32.9995 96.8018 33.3353 96.8018 33.7495C96.8018 34.1637 96.466 34.4995 96.0518 34.4995H71.0518C70.6376 34.4995 70.3018 34.1637 70.3018 33.7495Z" fill="white" fill-opacity="0.3"/>
<path d="M70.3018 42.25C70.3018 41.8358 70.6375 41.5 71.0518 41.5H88.0518C88.466 41.5 88.8018 41.8358 88.8018 42.25C88.8018 42.6642 88.466 43 88.0518 43H71.0518C70.6375 43 70.3018 42.6642 70.3018 42.25Z" fill="white" fill-opacity="0.3"/>
<path d="M70.3018 50.75C70.3018 50.3358 70.6375 50 71.0518 50H93.0518C93.466 50 93.8018 50.3358 93.8018 50.75C93.8018 51.1642 93.466 51.5 93.0518 51.5H71.0518C70.6375 51.5 70.3018 51.1642 70.3018 50.75Z" fill="white" fill-opacity="0.3"/>
<g opacity="0.3" filter="url(#filter4_f_2463_27863)">
<path d="M70.3145 74.5L86.8145 57.5L86.0756 74.5H70.3145Z" fill="url(#paint3_linear_2463_27863)"/>
</g>
<path d="M103.683 56.8L86.1743 74.6811V59.0352C86.1743 57.8008 87.175 56.8 88.4094 56.8L103.683 56.8Z" fill="url(#paint4_linear_2463_27863)"/>
<path d="M103.683 56.8L86.1743 74.6811V59.0352C86.1743 57.8008 87.175 56.8 88.4094 56.8L103.683 56.8Z" fill="url(#paint5_linear_2463_27863)" fill-opacity="0.2"/>
<g filter="url(#filter5_i_2463_27863)">
<path d="M80.9537 8C78.0723 8 75.7437 10.3357 75.7437 13.2022V20.2932H86.1743V13.2022C86.1743 10.3357 83.8351 8 80.9537 8ZM80.9537 15.591C79.6884 15.591 78.6677 14.5718 78.6677 13.3084C78.6677 12.045 79.6884 11.0258 80.9537 11.0258C82.219 11.0258 83.2397 12.045 83.2397 13.3084C83.2397 14.5718 82.219 15.591 80.9537 15.591Z" fill="url(#paint6_linear_2463_27863)"/>
</g>
<g filter="url(#filter6_i_2463_27863)">
<path d="M65.8145 19.5C65.8145 17.8431 67.1576 16.5 68.8145 16.5H93.3145C94.9713 16.5 96.3145 17.8431 96.3145 19.5V24C96.3145 24.8284 95.6429 25.5 94.8145 25.5H67.3145C66.486 25.5 65.8145 24.8284 65.8145 24V19.5Z" fill="url(#paint7_linear_2463_27863)"/>
</g>
<path d="M93.3145 16.5C94.9713 16.5 96.3145 17.8431 96.3145 19.5V21H65.8145V19.5C65.8145 17.8431 67.1576 16.5 68.8145 16.5H93.3145Z" fill="url(#paint8_linear_2463_27863)"/>
<path d="M65.5518 35.5C66.5183 35.5 67.3018 34.7165 67.3018 33.75C67.3018 32.7835 66.5183 32 65.5518 32C64.5853 32 63.8018 32.7835 63.8018 33.75C63.8018 34.7165 64.5853 35.5 65.5518 35.5Z" fill="white" fill-opacity="0.3"/>
<path d="M65.5518 44C66.5183 44 67.3018 43.2165 67.3018 42.25C67.3018 41.2835 66.5183 40.5 65.5518 40.5C64.5853 40.5 63.8018 41.2835 63.8018 42.25C63.8018 43.2165 64.5853 44 65.5518 44Z" fill="white" fill-opacity="0.3"/>
<path d="M65.5518 52.5C66.5183 52.5 67.3018 51.7165 67.3018 50.75C67.3018 49.7835 66.5183 49 65.5518 49C64.5853 49 63.8018 49.7835 63.8018 50.75C63.8018 51.7165 64.5853 52.5 65.5518 52.5Z" fill="white" fill-opacity="0.3"/>
<defs>
<filter id="filter0_i_2463_27863" x="56" y="19.1758" width="49.918" height="58.4385" filterUnits="userSpaceOnUse" color-interpolation-filters="sRGB">
<feFlood flood-opacity="0" result="BackgroundImageFix"/>
<feBlend mode="normal" in="SourceGraphic" in2="BackgroundImageFix" result="shape"/>
<feColorMatrix in="SourceAlpha" type="matrix" values="0 0 0 0 0 0 0 0 0 0 0 0 0 0 0 0 0 0 127 0" result="hardAlpha"/>
<feOffset dy="0.6975"/>
<feGaussianBlur stdDeviation="0.34875"/>
<feComposite in2="hardAlpha" operator="arithmetic" k2="-1" k3="1"/>
<feColorMatrix type="matrix" values="0 0 0 0 1 0 0 0 0 1 0 0 0 0 1 0 0 0 0.45 0"/>
<feBlend mode="normal" in2="shape" result="effect1_innerShadow_2463_27863"/>
</filter>
<filter id="filter1_f_2463_27863" x="53.5055" y="63.5661" width="54.5346" height="17.269" filterUnits="userSpaceOnUse" color-interpolation-filters="sRGB">
<feFlood flood-opacity="0" result="BackgroundImageFix"/>
<feBlend mode="normal" in="SourceGraphic" in2="BackgroundImageFix" result="shape"/>
<feGaussianBlur stdDeviation="3.10989" result="effect1_foregroundBlur_2463_27863"/>
</filter>
<filter id="filter2_i_2463_27863" x="58.2351" y="21.4104" width="45.4477" height="53.7706" filterUnits="userSpaceOnUse" color-interpolation-filters="sRGB">
<feFlood flood-opacity="0" result="BackgroundImageFix"/>
<feBlend mode="normal" in="SourceGraphic" in2="BackgroundImageFix" result="shape"/>
<feColorMatrix in="SourceAlpha" type="matrix" values="0 0 0 0 0 0 0 0 0 0 0 0 0 0 0 0 0 0 127 0" result="hardAlpha"/>
<feOffset dy="0.5"/>
<feGaussianBlur stdDeviation="0.25"/>
<feComposite in2="hardAlpha" operator="arithmetic" k2="-1" k3="1"/>
<feColorMatrix type="matrix" values="0 0 0 0 1 0 0 0 0 1 0 0 0 0 1 0 0 0 0.5 0"/>
<feBlend mode="normal" in2="shape" result="effect1_innerShadow_2463_27863"/>
</filter>
<filter id="filter3_f_2463_27863" x="62.8145" y="17" width="36.5" height="13" filterUnits="userSpaceOnUse" color-interpolation-filters="sRGB">
<feFlood flood-opacity="0" result="BackgroundImageFix"/>
<feBlend mode="normal" in="SourceGraphic" in2="BackgroundImageFix" result="shape"/>
<feGaussianBlur stdDeviation="2" result="effect1_foregroundBlur_2463_27863"/>
</filter>
<filter id="filter4_f_2463_27863" x="68.3145" y="55.5" width="20.5" height="21" filterUnits="userSpaceOnUse" color-interpolation-filters="sRGB">
<feFlood flood-opacity="0" result="BackgroundImageFix"/>
<feBlend mode="normal" in="SourceGraphic" in2="BackgroundImageFix" result="shape"/>
<feGaussianBlur stdDeviation="1" result="effect1_foregroundBlur_2463_27863"/>
</filter>
<filter id="filter5_i_2463_27863" x="75.7437" y="8" width="10.4306" height="12.7932" filterUnits="userSpaceOnUse" color-interpolation-filters="sRGB">
<feFlood flood-opacity="0" result="BackgroundImageFix"/>
<feBlend mode="normal" in="SourceGraphic" in2="BackgroundImageFix" result="shape"/>
<feColorMatrix in="SourceAlpha" type="matrix" values="0 0 0 0 0 0 0 0 0 0 0 0 0 0 0 0 0 0 127 0" result="hardAlpha"/>
<feOffset dy="0.5"/>
<feGaussianBlur stdDeviation="0.25"/>
<feComposite in2="hardAlpha" operator="arithmetic" k2="-1" k3="1"/>
<feColorMatrix type="matrix" values="0 0 0 0 1 0 0 0 0 1 0 0 0 0 1 0 0 0 0.5 0"/>
<feBlend mode="normal" in2="shape" result="effect1_innerShadow_2463_27863"/>
</filter>
<filter id="filter6_i_2463_27863" x="65.8145" y="16.5" width="30.5" height="9.5" filterUnits="userSpaceOnUse" color-interpolation-filters="sRGB">
<feFlood flood-opacity="0" result="BackgroundImageFix"/>
<feBlend mode="normal" in="SourceGraphic" in2="BackgroundImageFix" result="shape"/>
<feColorMatrix in="SourceAlpha" type="matrix" values="0 0 0 0 0 0 0 0 0 0 0 0 0 0 0 0 0 0 127 0" result="hardAlpha"/>
<feOffset dy="0.5"/>
<feGaussianBlur stdDeviation="0.25"/>
<feComposite in2="hardAlpha" operator="arithmetic" k2="-1" k3="1"/>
<feColorMatrix type="matrix" values="0 0 0 0 1 0 0 0 0 1 0 0 0 0 1 0 0 0 0.5 0"/>
<feBlend mode="normal" in2="shape" result="effect1_innerShadow_2463_27863"/>
</filter>
<linearGradient id="paint0_linear_2463_27863" x1="91.0645" y1="44.25" x2="102.114" y2="65.2797" gradientUnits="userSpaceOnUse">
<stop stop-color="#A7A4B5"/>
<stop offset="1" stop-color="#4A4658"/>
</linearGradient>
<linearGradient id="paint1_linear_2463_27863" x1="96.4186" y1="97.7776" x2="74.5859" y2="24.0394" gradientUnits="userSpaceOnUse">
<stop stop-color="#E0DFE2"/>
<stop offset="1" stop-color="#F9F9F9"/>
</linearGradient>
<linearGradient id="paint2_linear_2463_27863" x1="107.564" y1="11.5" x2="57.4241" y2="59.0371" gradientUnits="userSpaceOnUse">
<stop stop-color="#D0CDDB"/>
<stop offset="1" stop-color="#4A4658"/>
</linearGradient>
<linearGradient id="paint3_linear_2463_27863" x1="88.3145" y1="58.75" x2="80.5645" y2="70.25" gradientUnits="userSpaceOnUse">
<stop/>
<stop offset="1" stop-opacity="0"/>
</linearGradient>
<linearGradient id="paint4_linear_2463_27863" x1="90.8144" y1="52" x2="88.9625" y2="92.461" gradientUnits="userSpaceOnUse">
<stop stop-color="#3B3747"/>
<stop offset="1" stop-color="#D2CDE3"/>
</linearGradient>
<linearGradient id="paint5_linear_2463_27863" x1="97.3144" y1="63.5" x2="94.8144" y2="61.5" gradientUnits="userSpaceOnUse">
<stop stop-color="white"/>
<stop offset="1" stop-color="white" stop-opacity="0"/>
</linearGradient>
<linearGradient id="paint6_linear_2463_27863" x1="81.4605" y1="3.86286" x2="73.3758" y2="17.8822" gradientUnits="userSpaceOnUse">
<stop stop-color="#ECAAFF"/>
<stop offset="1" stop-color="#6A48F6"/>
</linearGradient>
<linearGradient id="paint7_linear_2463_27863" x1="82.5308" y1="13.4712" x2="80.5964" y2="26.8688" gradientUnits="userSpaceOnUse">
<stop stop-color="#ECAAFF"/>
<stop offset="1" stop-color="#6A48F6"/>
</linearGradient>
<linearGradient id="paint8_linear_2463_27863" x1="106.314" y1="6.88636" x2="72.7926" y2="18.281" gradientUnits="userSpaceOnUse">
<stop stop-color="white"/>
<stop offset="1" stop-color="white" stop-opacity="0"/>
</linearGradient>
</defs>
</svg>
