<svg width="16" height="16" viewBox="0 0 16 16" fill="none" xmlns="http://www.w3.org/2000/svg">
<path fill-rule="evenodd" clip-rule="evenodd" d="M8 4.5C9.10457 4.5 10 5.39543 10 6.5C10 7.60457 9.10457 8.5 8 8.5C6.89543 8.5 6 7.60457 6 6.5C6 5.39543 6.89543 4.5 8 4.5ZM8 5.5C7.44772 5.5 7 5.94772 7 6.5C7 7.05228 7.44772 7.5 8 7.5C8.55228 7.5 9 7.05228 9 6.5C9 5.94772 8.55228 5.5 8 5.5Z" fill="#A7A4B5"/>
<path fill-rule="evenodd" clip-rule="evenodd" d="M8 1C11.0376 1 13.5 3.46243 13.5 6.5C13.5 10.0813 10.0161 13.5356 8.59375 14.7969C8.27142 15.0827 7.81118 15.1009 7.47168 14.8506L7.40625 14.7969C5.9839 13.5356 2.5 10.0813 2.5 6.5C2.5 3.46243 4.96243 1 8 1ZM8 2C5.51472 2 3.5 4.01472 3.5 6.5C3.5 7.98378 4.23208 9.53484 5.2334 10.9375C6.18841 12.2753 7.3101 13.3685 8 13.9863C8.6899 13.3685 9.81159 12.2753 10.7666 10.9375C11.7679 9.53484 12.5 7.98378 12.5 6.5C12.5 4.01472 10.4853 2 8 2Z" fill="#A7A4B5"/>
</svg>
