<svg width="187" height="48" viewBox="0 0 187 48" fill="none" xmlns="http://www.w3.org/2000/svg">
<path d="M163.185 14.2919H154.565V32.9827H157.979V28.3299C157.979 27.878 158.158 27.4412 158.48 27.1221C158.799 26.8031 159.235 26.6208 159.687 26.6208H163.185C164.816 26.6208 166.379 25.9713 167.529 24.8204C168.682 23.6658 169.327 22.1009 169.327 20.4715C169.331 19.6625 169.175 18.8573 168.868 18.1091C168.561 17.3608 168.109 16.6771 167.536 16.1036C166.963 15.5301 166.288 15.0743 165.541 14.7629C164.797 14.4514 163.996 14.2919 163.185 14.2919ZM165.875 20.4221C165.875 20.8058 165.799 21.1856 165.651 21.5388C165.503 21.892 165.29 22.2149 165.017 22.4846C164.748 22.7542 164.425 22.9707 164.072 23.115C163.72 23.2632 163.34 23.3353 162.957 23.3353H157.964V17.5127H162.957C163.34 17.5127 163.72 17.5887 164.076 17.7368C164.429 17.885 164.751 18.1015 165.021 18.3711C165.29 18.6446 165.506 18.9674 165.651 19.3207C165.795 19.6777 165.871 20.0575 165.867 20.4411L165.875 20.4221Z" fill="white"/>
<path d="M142.572 32.9144L135.693 14.2388H139.579L144.105 27.6045C144.283 28.0831 144.412 28.5769 144.488 29.082H144.526C144.583 28.5731 144.712 28.0755 144.909 27.6045L149.45 14.2388H153.362L146.449 32.9144H142.572Z" fill="white"/>
<path d="M170.606 32.914V14.2346H173.599L182.409 25.8191C182.727 26.2179 183 26.6471 183.232 27.1028H183.285C183.224 26.5407 183.198 25.9748 183.202 25.4088V14.2346H186.73V32.9102H183.736L174.9 21.3258C174.589 20.9232 174.316 20.494 174.081 20.042H174.05C174.1 20.6042 174.119 21.1701 174.107 21.736V32.9102H170.606V32.914Z" fill="white"/>
<path d="M55.8406 27.8832V32.6902H59.197V28.0932C59.197 27.647 59.3723 27.2158 59.6893 26.9008C60.0026 26.5858 60.4314 26.4058 60.8752 26.4058H64.3175C65.9211 26.4058 67.4613 25.7647 68.5951 24.621C69.7288 23.4811 70.3665 21.9326 70.3665 20.3202C70.3665 18.7079 69.7288 17.1593 68.5951 16.0157C67.4613 14.8758 65.9211 14.2346 64.3137 14.2346H55.8406V20.2415H59.197V17.4105H64.09C64.8508 17.4105 65.578 17.7143 66.115 18.2542C66.6521 18.7941 66.9541 19.5253 66.9541 20.2902C66.9541 21.0552 66.6521 21.7863 66.115 22.3263C65.578 22.8662 64.8508 23.1699 64.09 23.1699H60.5359C59.9205 23.1699 59.3089 23.2899 58.742 23.5299C58.1714 23.7661 57.6568 24.1148 57.2204 24.5535C56.7841 24.9922 56.441 25.5134 56.2023 26.0834C55.9636 26.6496 55.8406 27.2645 55.8406 27.8832Z" fill="white"/>
<path d="M70.885 32.6902V25.3672C70.885 22.3788 72.6191 20.0015 76.0912 20.0015C76.6469 19.994 77.2025 20.054 77.747 20.1852V23.1962C77.3517 23.1699 77.0123 23.1699 76.852 23.1699C75.0134 23.1699 74.2227 24.0173 74.2227 25.7347V32.6902H70.885Z" fill="white"/>
<path d="M78.7464 26.4809C78.7464 22.8063 81.5061 20.0053 85.3474 20.0053C89.1886 20.0053 91.9484 22.8063 91.9484 26.4809C91.9484 30.1555 89.1886 32.9827 85.3474 32.9827C81.5061 32.9827 78.7464 30.1517 78.7464 26.4809ZM88.6591 26.4809C88.6591 24.3924 87.2643 22.9113 85.3474 22.9113C83.4267 22.9113 82.0357 24.3886 82.0357 26.4809C82.0357 28.5957 83.4305 30.0505 85.3474 30.0505C87.268 30.0505 88.6591 28.5919 88.6591 26.4809Z" fill="white"/>
<path d="M102.622 26.4809C102.622 22.8063 105.382 20.0053 109.223 20.0053C113.061 20.0053 115.82 22.8063 115.82 26.4809C115.82 30.1555 113.061 32.9827 109.223 32.9827C105.382 32.9827 102.622 30.1517 102.622 26.4809ZM112.531 26.4809C112.531 24.3924 111.136 22.9113 109.219 22.9113C107.302 22.9113 105.908 24.3886 105.908 26.4809C105.908 28.5957 107.302 30.0505 109.219 30.0505C111.136 30.0505 112.531 28.5919 112.531 26.4809Z" fill="white"/>
<path d="M117.555 32.6902V25.6335C117.555 22.3563 119.632 20.0016 123.339 20.0016C127.02 20.0016 129.097 22.3526 129.097 25.6335V32.6902H125.785V25.8959C125.785 24.0736 124.969 22.9338 123.339 22.9338C121.709 22.9338 120.892 24.0699 120.892 25.8959V32.6902H117.555Z" fill="white"/>
<path d="M101.623 22.9373H98.0199V27.5643C98.0199 29.1767 98.598 29.9153 100.254 29.9153C100.41 29.9153 100.806 29.9153 101.306 29.8891V32.6113C100.623 32.795 100.019 32.9038 99.3588 32.9038C96.5729 32.9038 94.6784 31.2127 94.6784 28.0143V22.9373H92.4408V20.2676H93.0002C93.2202 20.2676 93.4402 20.2226 93.6416 20.1401C93.8467 20.0539 94.0295 19.9301 94.1861 19.7727C94.3428 19.6152 94.4658 19.4314 94.5516 19.2252C94.6374 19.019 94.6784 18.8015 94.6784 18.5803V16.0643H98.0162V20.2676H101.619V22.9373H101.623Z" fill="white"/>
<path fill-rule="evenodd" clip-rule="evenodd" d="M20.7514 38.2314C22.1471 40.7405 25.7314 40.8764 27.316 38.4803L42.0916 16.1378C43.6585 13.7684 42.1593 10.5918 39.3219 10.269L10.2801 6.96453C7.1838 6.61223 4.97922 9.87707 6.48523 12.5845L6.60333 12.7957L19.5619 21.6752L19.4045 35.8011L20.7514 38.2314Z" fill="url(#paint0_linear_1559_542)"/>
<path d="M21.5836 35.8911L22.895 33.9352L32.8555 18.8893C33.7264 17.5738 32.8952 15.8091 31.3195 15.6282L6.59998 12.7902L19.4054 35.8112C19.8727 36.6351 21.0544 36.6804 21.5836 35.8911Z" fill="url(#paint1_radial_1559_542)"/>
<defs>
<linearGradient id="paint0_linear_1559_542" x1="39.2097" y1="38.2297" x2="15.5792" y2="-2.52147" gradientUnits="userSpaceOnUse">
<stop offset="0.0660125" stop-color="#8EFFEE"/>
<stop offset="0.4499" stop-color="#C9C7FF"/>
<stop offset="1" stop-color="#7341FF"/>
</linearGradient>
<radialGradient id="paint1_radial_1559_542" cx="0" cy="0" r="1" gradientUnits="userSpaceOnUse" gradientTransform="translate(21.6177 2.25143) rotate(93.7553) scale(37.4954 48.3543)">
<stop offset="0.403126" stop-color="#6D4AFF"/>
<stop offset="0.9944" stop-color="#00F0C3"/>
</radialGradient>
</defs>
</svg>

